<mxfile host="app.diagrams.net" agent="Mozilla/5.0 (Windows NT 10.0; Win64; x64) AppleWebKit/537.36 (KHTML, like Gecko) Chrome/136.0.0.0 Safari/537.36" version="27.0.6">
  <diagram id="gantt-chart" name="Research-Project-Gantt-Chart">
    <mxGraphModel dx="1426" dy="0" grid="1" gridSize="10" guides="1" tooltips="1" connect="1" arrows="1" fold="1" page="1" pageScale="1" pageWidth="1169" pageHeight="827" math="0" shadow="0">
      <root>
        <mxCell id="0" />
        <mxCell id="1" parent="0" />
        <mxCell id="title" value="研究项目甘特图" style="text;html=1;strokeColor=none;fillColor=none;align=center;verticalAlign=middle;whiteSpace=wrap;rounded=0;fontSize=20;fontStyle=1" parent="1" vertex="1">
          <mxGeometry x="385" y="20" width="400" height="40" as="geometry" />
        </mxCell>
        <mxCell id="months-header" value="月份" style="rounded=0;whiteSpace=wrap;html=1;fillColor=#f5f5f5;strokeColor=#666666;fontColor=#333333;fontSize=12;fontStyle=1" parent="1" vertex="1">
          <mxGeometry x="200" y="80" width="80" height="30" as="geometry" />
        </mxCell>
        <mxCell id="month-1-6" value="1-6月" style="rounded=0;whiteSpace=wrap;html=1;fillColor=#dae8fc;strokeColor=#6c8ebf;fontSize=12;" parent="1" vertex="1">
          <mxGeometry x="280" y="80" width="120" height="30" as="geometry" />
        </mxCell>
        <mxCell id="month-7-12" value="7-12月" style="rounded=0;whiteSpace=wrap;html=1;fillColor=#d5e8d4;strokeColor=#82b366;fontSize=12;" parent="1" vertex="1">
          <mxGeometry x="400" y="80" width="120" height="30" as="geometry" />
        </mxCell>
        <mxCell id="month-13-18" value="13-18月" style="rounded=0;whiteSpace=wrap;html=1;fillColor=#d5e8d4;strokeColor=#82b366;fontSize=12;" parent="1" vertex="1">
          <mxGeometry x="520" y="80" width="120" height="30" as="geometry" />
        </mxCell>
        <mxCell id="month-19-24" value="19-24月" style="rounded=0;whiteSpace=wrap;html=1;fillColor=#ffe6cc;strokeColor=#d79b00;fontSize=12;" parent="1" vertex="1">
          <mxGeometry x="640" y="80" width="120" height="30" as="geometry" />
        </mxCell>
        <mxCell id="month-25-30" value="25-30月" style="rounded=0;whiteSpace=wrap;html=1;fillColor=#ffe6cc;strokeColor=#d79b00;fontSize=12;" parent="1" vertex="1">
          <mxGeometry x="760" y="80" width="120" height="30" as="geometry" />
        </mxCell>
        <mxCell id="month-31-36" value="31-36月" style="rounded=0;whiteSpace=wrap;html=1;fillColor=#f8cecc;strokeColor=#b85450;fontSize=12;" parent="1" vertex="1">
          <mxGeometry x="880" y="80" width="120" height="30" as="geometry" />
        </mxCell>
        <mxCell id="stage-header" value="阶段/任务" style="rounded=0;whiteSpace=wrap;html=1;fillColor=#f5f5f5;strokeColor=#666666;fontColor=#333333;fontSize=12;fontStyle=1" parent="1" vertex="1">
          <mxGeometry x="200" y="110" width="80" height="30" as="geometry" />
        </mxCell>
        <mxCell id="stage-1" value="第一阶段：准备与设计" style="rounded=0;whiteSpace=wrap;html=1;fillColor=#dae8fc;strokeColor=#6c8ebf;fontSize=12;fontStyle=1" parent="1" vertex="1">
          <mxGeometry x="200" y="140" width="80" height="100" as="geometry" />
        </mxCell>
        <mxCell id="task-1-1" value="文献综述" style="rounded=0;whiteSpace=wrap;html=1;fillColor=#dae8fc;strokeColor=#6c8ebf;fontSize=12;" parent="1" vertex="1">
          <mxGeometry x="280" y="140" width="120" height="20" as="geometry" />
        </mxCell>
        <mxCell id="task-1-2" value="需求分析" style="rounded=0;whiteSpace=wrap;html=1;fillColor=#dae8fc;strokeColor=#6c8ebf;fontSize=12;" parent="1" vertex="1">
          <mxGeometry x="280" y="160" width="120" height="20" as="geometry" />
        </mxCell>
        <mxCell id="task-1-3" value="初步理论框架" style="rounded=0;whiteSpace=wrap;html=1;fillColor=#dae8fc;strokeColor=#6c8ebf;fontSize=12;" parent="1" vertex="1">
          <mxGeometry x="280" y="180" width="120" height="20" as="geometry" />
        </mxCell>
        <mxCell id="task-1-4" value="研究方案" style="rounded=0;whiteSpace=wrap;html=1;fillColor=#dae8fc;strokeColor=#6c8ebf;fontSize=12;" parent="1" vertex="1">
          <mxGeometry x="280" y="200" width="120" height="20" as="geometry" />
        </mxCell>
        <mxCell id="task-1-5" value="开题" style="rounded=0;whiteSpace=wrap;html=1;fillColor=#dae8fc;strokeColor=#6c8ebf;fontSize=12;" parent="1" vertex="1">
          <mxGeometry x="280" y="220" width="120" height="20" as="geometry" />
        </mxCell>
        <mxCell id="stage-2" value="第二阶段：模式构建与原型开发" style="rounded=0;whiteSpace=wrap;html=1;fillColor=#d5e8d4;strokeColor=#82b366;fontSize=12;fontStyle=1" parent="1" vertex="1">
          <mxGeometry x="200" y="240" width="80" height="100" as="geometry" />
        </mxCell>
        <mxCell id="task-2-1" value="AI教学创新模式设计" style="rounded=0;whiteSpace=wrap;html=1;fillColor=#d5e8d4;strokeColor=#82b366;fontSize=12;" parent="1" vertex="1">
          <mxGeometry x="400" y="240" width="240" height="20" as="geometry" />
        </mxCell>
        <mxCell id="task-2-2" value="智慧评价指标体系研制" style="rounded=0;whiteSpace=wrap;html=1;fillColor=#d5e8d4;strokeColor=#82b366;fontSize=12;" parent="1" vertex="1">
          <mxGeometry x="400" y="260" width="240" height="20" as="geometry" />
        </mxCell>
        <mxCell id="task-2-3" value="AI平台原型V1.0开发" style="rounded=0;whiteSpace=wrap;html=1;fillColor=#d5e8d4;strokeColor=#82b366;fontSize=12;" parent="1" vertex="1">
          <mxGeometry x="400" y="280" width="240" height="20" as="geometry" />
        </mxCell>
        <mxCell id="task-2-4" value="实验方案" style="rounded=0;whiteSpace=wrap;html=1;fillColor=#d5e8d4;strokeColor=#82b366;fontSize=12;" parent="1" vertex="1">
          <mxGeometry x="400" y="300" width="240" height="20" as="geometry" />
        </mxCell>
        <mxCell id="task-2-5" value="中期报告" style="rounded=0;whiteSpace=wrap;html=1;fillColor=#d5e8d4;strokeColor=#82b366;fontSize=12;" parent="1" vertex="1">
          <mxGeometry x="520" y="320" width="120" height="20" as="geometry" />
        </mxCell>
        <mxCell id="stage-3" value="第三阶段：实践应用与数据采集" style="rounded=0;whiteSpace=wrap;html=1;fillColor=#ffe6cc;strokeColor=#d79b00;fontSize=12;fontStyle=1" parent="1" vertex="1">
          <mxGeometry x="200" y="340" width="80" height="80" as="geometry" />
        </mxCell>
        <mxCell id="task-3-1" value="合作院校教师培训" style="rounded=0;whiteSpace=wrap;html=1;fillColor=#ffe6cc;strokeColor=#d79b00;fontSize=12;" parent="1" vertex="1">
          <mxGeometry x="640" y="340" width="120" height="20" as="geometry" />
        </mxCell>
        <mxCell id="task-3-2" value="AI教学与评价试点（至少一学年）" style="rounded=0;whiteSpace=wrap;html=1;fillColor=#ffe6cc;strokeColor=#d79b00;fontSize=12;" parent="1" vertex="1">
          <mxGeometry x="640" y="360" width="240" height="20" as="geometry" />
        </mxCell>
        <mxCell id="task-3-3" value="多维数据收集" style="rounded=0;whiteSpace=wrap;html=1;fillColor=#ffe6cc;strokeColor=#d79b00;fontSize=12;" parent="1" vertex="1">
          <mxGeometry x="640" y="380" width="240" height="20" as="geometry" />
        </mxCell>
        <mxCell id="task-3-4" value="原始数据库、实验过程记录" style="rounded=0;whiteSpace=wrap;html=1;fillColor=#ffe6cc;strokeColor=#d79b00;fontSize=12;" parent="1" vertex="1">
          <mxGeometry x="640" y="400" width="240" height="20" as="geometry" />
        </mxCell>
        <mxCell id="stage-4" value="第四阶段：数据分析、评估与优化" style="rounded=0;whiteSpace=wrap;html=1;fillColor=#e1d5e7;strokeColor=#9673a6;fontSize=12;fontStyle=1" parent="1" vertex="1">
          <mxGeometry x="200" y="420" width="80" height="100" as="geometry" />
        </mxCell>
        <mxCell id="task-4-1" value="数据分析" style="rounded=0;whiteSpace=wrap;html=1;fillColor=#e1d5e7;strokeColor=#9673a6;fontSize=12;" parent="1" vertex="1">
          <mxGeometry x="760" y="420" width="240" height="20" as="geometry" />
        </mxCell>
        <mxCell id="task-4-2" value="效果评估" style="rounded=0;whiteSpace=wrap;html=1;fillColor=#e1d5e7;strokeColor=#9673a6;fontSize=12;" parent="1" vertex="1">
          <mxGeometry x="760" y="440" width="240" height="20" as="geometry" />
        </mxCell>
        <mxCell id="task-4-3" value="理论框架修正" style="rounded=0;whiteSpace=wrap;html=1;fillColor=#e1d5e7;strokeColor=#9673a6;fontSize=12;" parent="1" vertex="1">
          <mxGeometry x="760" y="460" width="240" height="20" as="geometry" />
        </mxCell>
        <mxCell id="task-4-4" value="模式与平台优化V2.0" style="rounded=0;whiteSpace=wrap;html=1;fillColor=#e1d5e7;strokeColor=#9673a6;fontSize=12;" parent="1" vertex="1">
          <mxGeometry x="760" y="480" width="240" height="20" as="geometry" />
        </mxCell>
        <mxCell id="task-4-5" value="阶段性论文" style="rounded=0;whiteSpace=wrap;html=1;fillColor=#e1d5e7;strokeColor=#9673a6;fontSize=12;" parent="1" vertex="1">
          <mxGeometry x="760" y="500" width="240" height="20" as="geometry" />
        </mxCell>
        <mxCell id="stage-5" value="第五阶段：成果总结与推广" style="rounded=0;whiteSpace=wrap;html=1;fillColor=#f8cecc;strokeColor=#b85450;fontSize=12;fontStyle=1" parent="1" vertex="1">
          <mxGeometry x="200" y="520" width="80" height="100" as="geometry" />
        </mxCell>
        <mxCell id="task-5-1" value="研究总报告" style="rounded=0;whiteSpace=wrap;html=1;fillColor=#f8cecc;strokeColor=#b85450;fontSize=12;" parent="1" vertex="1">
          <mxGeometry x="880" y="520" width="120" height="20" as="geometry" />
        </mxCell>
        <mxCell id="task-5-2" value="实施指南" style="rounded=0;whiteSpace=wrap;html=1;fillColor=#f8cecc;strokeColor=#b85450;fontSize=12;" parent="1" vertex="1">
          <mxGeometry x="880" y="540" width="120" height="20" as="geometry" />
        </mxCell>
        <mxCell id="task-5-3" value="政策建议" style="rounded=0;whiteSpace=wrap;html=1;fillColor=#f8cecc;strokeColor=#b85450;fontSize=12;" parent="1" vertex="1">
          <mxGeometry x="880" y="560" width="120" height="20" as="geometry" />
        </mxCell>
        <mxCell id="task-5-4" value="成果发布" style="rounded=0;whiteSpace=wrap;html=1;fillColor=#f8cecc;strokeColor=#b85450;fontSize=12;" parent="1" vertex="1">
          <mxGeometry x="880" y="580" width="120" height="20" as="geometry" />
        </mxCell>
        <mxCell id="task-5-5" value="发表论文、软著/专利" style="rounded=0;whiteSpace=wrap;html=1;fillColor=#f8cecc;strokeColor=#b85450;fontSize=12;" parent="1" vertex="1">
          <mxGeometry x="880" y="600" width="120" height="20" as="geometry" />
        </mxCell>
        <mxCell id="overlap-3-4" value="阶段三与阶段四部分并行" style="endArrow=classic;html=1;rounded=0;strokeWidth=2;dashed=1;fillColor=#e1d5e7;strokeColor=#9673a6;" parent="1" edge="1">
          <mxGeometry width="50" height="50" relative="1" as="geometry">
            <mxPoint x="760" y="640" as="sourcePoint" />
            <mxPoint x="760" y="360" as="targetPoint" />
          </mxGeometry>
        </mxCell>
        <mxCell id="overlap-4-5" value="阶段四与阶段五部分并行" style="endArrow=classic;html=1;rounded=0;strokeWidth=2;dashed=1;fillColor=#f8cecc;strokeColor=#b85450;" parent="1" edge="1">
          <mxGeometry width="50" height="50" relative="1" as="geometry">
            <mxPoint x="880" y="640" as="sourcePoint" />
            <mxPoint x="880" y="460" as="targetPoint" />
          </mxGeometry>
        </mxCell>
        <mxCell id="progress-guarantee" value="研究进度保障：通过例会、阶段目标、责任人、多方协同、风险预案等确保研究顺利推进" style="text;html=1;strokeColor=#666666;fillColor=#f5f5f5;align=center;verticalAlign=middle;whiteSpace=wrap;rounded=0;fontSize=14;fontStyle=1;fontColor=#333333;" parent="1" vertex="1">
          <mxGeometry x="200" y="660" width="800" height="30" as="geometry" />
        </mxCell>
      </root>
    </mxGraphModel>
  </diagram>
</mxfile>
